<mxfile host="65bd71144e">
    <diagram id="ztlWJ6NxgiM9QfAJ39QH" name="Automata1">
        <mxGraphModel dx="732" dy="399" grid="1" gridSize="10" guides="1" tooltips="1" connect="1" arrows="1" fold="1" page="1" pageScale="1" pageWidth="850" pageHeight="1100" math="0" shadow="0">
            <root>
                <mxCell id="0"/>
                <mxCell id="1" parent="0"/>
            </root>
        </mxGraphModel>
    </diagram>
    <diagram id="4aPBPv4Iv8i3k8Fxbl3U" name="Automata2">
        <mxGraphModel dx="1208" dy="658" grid="1" gridSize="10" guides="1" tooltips="1" connect="1" arrows="1" fold="1" page="1" pageScale="1" pageWidth="850" pageHeight="1100" math="0" shadow="0">
            <root>
                <mxCell id="0"/>
                <mxCell id="1" parent="0"/>
                <mxCell id="5" style="edgeStyle=none;html=1;exitX=0.5;exitY=0;exitDx=0;exitDy=0;entryX=0;entryY=0.5;entryDx=0;entryDy=0;fontSize=18;sketch=1;curveFitting=1;jiggle=2;" parent="1" source="2" target="3" edge="1">
                    <mxGeometry relative="1" as="geometry">
                        <Array as="points">
                            <mxPoint x="60" y="140"/>
                        </Array>
                    </mxGeometry>
                </mxCell>
                <mxCell id="6" value="=" style="edgeLabel;html=1;align=center;verticalAlign=middle;resizable=0;points=[];fontSize=18;sketch=1;curveFitting=1;jiggle=2;" parent="5" vertex="1" connectable="0">
                    <mxGeometry x="0.1667" y="1" relative="1" as="geometry">
                        <mxPoint x="5" y="-30" as="offset"/>
                    </mxGeometry>
                </mxCell>
                <mxCell id="8" value="" style="edgeStyle=none;html=1;fontSize=18;sketch=1;curveFitting=1;jiggle=2;" parent="1" source="2" target="7" edge="1">
                    <mxGeometry relative="1" as="geometry"/>
                </mxCell>
                <mxCell id="21" style="edgeStyle=none;html=1;exitX=0.5;exitY=1;exitDx=0;exitDy=0;entryX=0;entryY=0.5;entryDx=0;entryDy=0;fontSize=18;sketch=1;curveFitting=1;jiggle=2;" parent="1" source="2" target="20" edge="1">
                    <mxGeometry relative="1" as="geometry">
                        <Array as="points">
                            <mxPoint x="100" y="280"/>
                        </Array>
                    </mxGeometry>
                </mxCell>
                <mxCell id="30" style="edgeStyle=none;html=1;exitX=0.5;exitY=1;exitDx=0;exitDy=0;entryX=0;entryY=0.5;entryDx=0;entryDy=0;fontSize=18;sketch=1;curveFitting=1;jiggle=2;" parent="1" source="2" target="29" edge="1">
                    <mxGeometry relative="1" as="geometry">
                        <Array as="points">
                            <mxPoint x="70" y="340"/>
                        </Array>
                    </mxGeometry>
                </mxCell>
                <mxCell id="38" style="edgeStyle=none;html=1;exitX=0.5;exitY=1;exitDx=0;exitDy=0;entryX=0;entryY=0.5;entryDx=0;entryDy=0;fontSize=18;sketch=1;curveFitting=1;jiggle=2;" parent="1" source="2" target="37" edge="1">
                    <mxGeometry relative="1" as="geometry">
                        <Array as="points">
                            <mxPoint x="60" y="450"/>
                        </Array>
                    </mxGeometry>
                </mxCell>
                <mxCell id="2" value="&lt;font size=&quot;3&quot;&gt;0&lt;/font&gt;" style="ellipse;whiteSpace=wrap;html=1;sketch=1;curveFitting=1;jiggle=2;" parent="1" vertex="1">
                    <mxGeometry x="30" y="250" width="40" height="40" as="geometry"/>
                </mxCell>
                <mxCell id="3" value="&lt;font size=&quot;3&quot;&gt;11&lt;/font&gt;" style="ellipse;whiteSpace=wrap;html=1;strokeColor=#00F030;sketch=1;curveFitting=1;jiggle=2;" parent="1" vertex="1">
                    <mxGeometry x="122.5" y="80" width="40" height="40" as="geometry"/>
                </mxCell>
                <mxCell id="11" value="" style="edgeStyle=none;html=1;fontSize=18;sketch=1;curveFitting=1;jiggle=2;" parent="1" source="7" target="10" edge="1">
                    <mxGeometry relative="1" as="geometry"/>
                </mxCell>
                <mxCell id="15" style="edgeStyle=none;html=1;exitX=0.5;exitY=1;exitDx=0;exitDy=0;entryX=0;entryY=0.5;entryDx=0;entryDy=0;fontSize=18;sketch=1;curveFitting=1;jiggle=2;" parent="1" source="7" target="14" edge="1">
                    <mxGeometry relative="1" as="geometry">
                        <Array as="points">
                            <mxPoint x="255" y="220"/>
                        </Array>
                    </mxGeometry>
                </mxCell>
                <mxCell id="7" value="&lt;font size=&quot;3&quot;&gt;12&lt;/font&gt;" style="ellipse;whiteSpace=wrap;html=1;strokeColor=#33FF33;sketch=1;curveFitting=1;jiggle=2;" parent="1" vertex="1">
                    <mxGeometry x="235" y="140" width="40" height="40" as="geometry"/>
                </mxCell>
                <mxCell id="9" value="&amp;lt;" style="text;html=1;align=center;verticalAlign=middle;resizable=0;points=[];autosize=1;strokeColor=none;fillColor=none;fontSize=18;sketch=1;curveFitting=1;jiggle=2;" parent="1" vertex="1">
                    <mxGeometry x="140" y="170" width="30" height="40" as="geometry"/>
                </mxCell>
                <mxCell id="10" value="&lt;font size=&quot;3&quot;&gt;13&lt;br&gt;&lt;/font&gt;" style="ellipse;whiteSpace=wrap;html=1;strokeColor=#33FF33;sketch=1;curveFitting=1;jiggle=2;" parent="1" vertex="1">
                    <mxGeometry x="345" y="140" width="40" height="40" as="geometry"/>
                </mxCell>
                <mxCell id="12" value="=" style="text;html=1;align=center;verticalAlign=middle;resizable=0;points=[];autosize=1;strokeColor=none;fillColor=none;fontSize=18;sketch=1;curveFitting=1;jiggle=2;" parent="1" vertex="1">
                    <mxGeometry x="290" y="130" width="30" height="40" as="geometry"/>
                </mxCell>
                <mxCell id="14" value="&lt;font size=&quot;3&quot;&gt;16&lt;br&gt;&lt;/font&gt;" style="ellipse;whiteSpace=wrap;html=1;strokeColor=#33FF33;sketch=1;curveFitting=1;jiggle=2;" parent="1" vertex="1">
                    <mxGeometry x="345" y="230" width="40" height="40" as="geometry"/>
                </mxCell>
                <mxCell id="16" value="&amp;gt;" style="text;html=1;align=center;verticalAlign=middle;resizable=0;points=[];autosize=1;strokeColor=none;fillColor=none;fontSize=18;sketch=1;curveFitting=1;jiggle=2;" parent="1" vertex="1">
                    <mxGeometry x="285" y="200" width="30" height="40" as="geometry"/>
                </mxCell>
                <mxCell id="17" value="OpR" style="text;html=1;align=center;verticalAlign=middle;resizable=0;points=[];autosize=1;strokeColor=none;fillColor=none;fontSize=18;sketch=1;curveFitting=1;jiggle=2;" parent="1" vertex="1">
                    <mxGeometry x="112.5" y="40" width="60" height="40" as="geometry"/>
                </mxCell>
                <mxCell id="18" value="&amp;lt; =" style="text;html=1;align=center;verticalAlign=middle;resizable=0;points=[];autosize=1;strokeColor=none;fillColor=none;fontSize=18;sketch=1;curveFitting=1;jiggle=2;" parent="1" vertex="1">
                    <mxGeometry x="380" y="140" width="50" height="40" as="geometry"/>
                </mxCell>
                <mxCell id="19" value="OpR" style="text;html=1;align=center;verticalAlign=middle;resizable=0;points=[];autosize=1;strokeColor=none;fillColor=none;fontSize=18;sketch=1;curveFitting=1;jiggle=2;" parent="1" vertex="1">
                    <mxGeometry x="225" y="100" width="60" height="40" as="geometry"/>
                </mxCell>
                <mxCell id="25" value="" style="edgeStyle=none;html=1;fontSize=18;sketch=1;curveFitting=1;jiggle=2;" parent="1" source="20" target="24" edge="1">
                    <mxGeometry relative="1" as="geometry"/>
                </mxCell>
                <mxCell id="20" value="&lt;font size=&quot;3&quot;&gt;14&lt;br&gt;&lt;/font&gt;" style="ellipse;whiteSpace=wrap;html=1;strokeColor=#33FF33;sketch=1;curveFitting=1;jiggle=2;" parent="1" vertex="1">
                    <mxGeometry x="172.5" y="280" width="40" height="40" as="geometry"/>
                </mxCell>
                <mxCell id="22" value="&amp;gt;" style="text;html=1;align=center;verticalAlign=middle;resizable=0;points=[];autosize=1;strokeColor=none;fillColor=none;fontSize=18;sketch=1;curveFitting=1;jiggle=2;" parent="1" vertex="1">
                    <mxGeometry x="110" y="250" width="30" height="40" as="geometry"/>
                </mxCell>
                <mxCell id="23" value="OpR" style="text;html=1;align=center;verticalAlign=middle;resizable=0;points=[];autosize=1;strokeColor=none;fillColor=none;fontSize=18;sketch=1;curveFitting=1;jiggle=2;" parent="1" vertex="1">
                    <mxGeometry x="160" y="310" width="60" height="40" as="geometry"/>
                </mxCell>
                <mxCell id="24" value="&lt;font size=&quot;3&quot;&gt;15&lt;br&gt;&lt;/font&gt;" style="ellipse;whiteSpace=wrap;html=1;strokeColor=#33FF33;sketch=1;curveFitting=1;jiggle=2;" parent="1" vertex="1">
                    <mxGeometry x="252.5" y="280" width="40" height="40" as="geometry"/>
                </mxCell>
                <mxCell id="26" value="=" style="text;html=1;align=center;verticalAlign=middle;resizable=0;points=[];autosize=1;strokeColor=none;fillColor=none;fontSize=18;sketch=1;curveFitting=1;jiggle=2;" parent="1" vertex="1">
                    <mxGeometry x="212.5" y="270" width="30" height="40" as="geometry"/>
                </mxCell>
                <mxCell id="27" value="&amp;lt; &amp;gt;" style="text;html=1;align=center;verticalAlign=middle;resizable=0;points=[];autosize=1;strokeColor=none;fillColor=none;fontSize=18;sketch=1;curveFitting=1;jiggle=2;" parent="1" vertex="1">
                    <mxGeometry x="380" y="230" width="50" height="40" as="geometry"/>
                </mxCell>
                <mxCell id="28" value="&amp;gt;=" style="text;html=1;align=center;verticalAlign=middle;resizable=0;points=[];autosize=1;strokeColor=none;fillColor=none;fontSize=18;sketch=1;curveFitting=1;jiggle=2;" parent="1" vertex="1">
                    <mxGeometry x="292.5" y="280" width="40" height="40" as="geometry"/>
                </mxCell>
                <mxCell id="34" value="" style="edgeStyle=none;html=1;fontSize=18;sketch=1;curveFitting=1;jiggle=2;" parent="1" source="29" target="33" edge="1">
                    <mxGeometry relative="1" as="geometry"/>
                </mxCell>
                <mxCell id="29" value="&lt;font size=&quot;3&quot;&gt;17&lt;br&gt;&lt;/font&gt;" style="ellipse;whiteSpace=wrap;html=1;strokeColor=#33FF33;sketch=1;curveFitting=1;jiggle=2;" parent="1" vertex="1">
                    <mxGeometry x="265" y="410" width="40" height="40" as="geometry"/>
                </mxCell>
                <mxCell id="31" value=":" style="text;html=1;align=center;verticalAlign=middle;resizable=0;points=[];autosize=1;strokeColor=none;fillColor=none;fontSize=18;sketch=1;curveFitting=1;jiggle=2;" parent="1" vertex="1">
                    <mxGeometry x="177.5" y="360" width="30" height="40" as="geometry"/>
                </mxCell>
                <mxCell id="32" value="Del" style="text;html=1;align=center;verticalAlign=middle;resizable=0;points=[];autosize=1;strokeColor=none;fillColor=none;fontSize=18;sketch=1;curveFitting=1;jiggle=2;" parent="1" vertex="1">
                    <mxGeometry x="260" y="380" width="50" height="40" as="geometry"/>
                </mxCell>
                <mxCell id="33" value="&lt;font size=&quot;3&quot;&gt;18&lt;br&gt;&lt;/font&gt;" style="ellipse;whiteSpace=wrap;html=1;strokeColor=#33FF33;sketch=1;curveFitting=1;jiggle=2;" parent="1" vertex="1">
                    <mxGeometry x="345" y="410" width="40" height="40" as="geometry"/>
                </mxCell>
                <mxCell id="35" value="=" style="text;html=1;align=center;verticalAlign=middle;resizable=0;points=[];autosize=1;strokeColor=none;fillColor=none;fontSize=18;sketch=1;curveFitting=1;jiggle=2;" parent="1" vertex="1">
                    <mxGeometry x="310" y="400" width="30" height="40" as="geometry"/>
                </mxCell>
                <mxCell id="36" value="OpS" style="text;html=1;align=center;verticalAlign=middle;resizable=0;points=[];autosize=1;strokeColor=none;fillColor=none;fontSize=18;sketch=1;curveFitting=1;jiggle=2;" parent="1" vertex="1">
                    <mxGeometry x="335" y="380" width="60" height="40" as="geometry"/>
                </mxCell>
                <mxCell id="37" value="&lt;font size=&quot;3&quot;&gt;19&lt;br&gt;&lt;/font&gt;" style="ellipse;whiteSpace=wrap;html=1;strokeColor=#33FF33;sketch=1;curveFitting=1;jiggle=2;" parent="1" vertex="1">
                    <mxGeometry x="172.5" y="480" width="40" height="40" as="geometry"/>
                </mxCell>
                <mxCell id="39" value=". [ ] , ; ( )" style="text;html=1;align=center;verticalAlign=middle;resizable=0;points=[];autosize=1;strokeColor=none;fillColor=none;fontSize=18;sketch=1;curveFitting=1;jiggle=2;" parent="1" vertex="1">
                    <mxGeometry x="60" y="410" width="90" height="40" as="geometry"/>
                </mxCell>
                <mxCell id="40" value="Del" style="text;html=1;align=center;verticalAlign=middle;resizable=0;points=[];autosize=1;strokeColor=none;fillColor=none;fontSize=18;sketch=1;curveFitting=1;jiggle=2;" parent="1" vertex="1">
                    <mxGeometry x="207.5" y="490" width="50" height="40" as="geometry"/>
                </mxCell>
            </root>
        </mxGraphModel>
    </diagram>
    <diagram id="k-_wd1hP5NV4btBL9plw" name="Automata3">
        <mxGraphModel dx="706" dy="470" grid="1" gridSize="10" guides="1" tooltips="1" connect="1" arrows="1" fold="1" page="1" pageScale="1" pageWidth="850" pageHeight="1100" math="0" shadow="0">
            <root>
                <mxCell id="0"/>
                <mxCell id="1" parent="0"/>
                <mxCell id="RqeVjvWLK6Z4S2-i9-vW-1" style="edgeStyle=none;sketch=1;hachureGap=4;jiggle=2;curveFitting=1;html=1;exitX=0.5;exitY=0;exitDx=0;exitDy=0;entryX=0;entryY=0.5;entryDx=0;entryDy=0;fontFamily=Architects Daughter;fontSource=https%3A%2F%2Ffonts.googleapis.com%2Fcss%3Ffamily%3DArchitects%2BDaughter;fontSize=16;" edge="1" parent="1" source="RqeVjvWLK6Z4S2-i9-vW-3" target="RqeVjvWLK6Z4S2-i9-vW-5">
                    <mxGeometry relative="1" as="geometry">
                        <Array as="points">
                            <mxPoint x="140" y="180"/>
                        </Array>
                    </mxGeometry>
                </mxCell>
                <mxCell id="RqeVjvWLK6Z4S2-i9-vW-2" value="&quot;" style="edgeLabel;html=1;align=center;verticalAlign=middle;resizable=0;points=[];fontSize=20;fontFamily=Architects Daughter;" vertex="1" connectable="0" parent="RqeVjvWLK6Z4S2-i9-vW-1">
                    <mxGeometry x="-0.2271" y="2" relative="1" as="geometry">
                        <mxPoint x="-8" y="-38" as="offset"/>
                    </mxGeometry>
                </mxCell>
                <mxCell id="RqeVjvWLK6Z4S2-i9-vW-3" value="0" style="ellipse;whiteSpace=wrap;html=1;aspect=fixed;sketch=1;hachureGap=4;jiggle=2;curveFitting=1;fontFamily=Architects Daughter;fontSource=https%3A%2F%2Ffonts.googleapis.com%2Fcss%3Ffamily%3DArchitects%2BDaughter;fontSize=20;" vertex="1" parent="1">
                    <mxGeometry x="120" y="280" width="40" height="40" as="geometry"/>
                </mxCell>
                <mxCell id="RqeVjvWLK6Z4S2-i9-vW-4" value="" style="edgeStyle=none;sketch=1;hachureGap=4;jiggle=2;curveFitting=1;html=1;fontFamily=Architects Daughter;fontSource=https%3A%2F%2Ffonts.googleapis.com%2Fcss%3Ffamily%3DArchitects%2BDaughter;fontSize=16;" edge="1" parent="1" source="RqeVjvWLK6Z4S2-i9-vW-5" target="RqeVjvWLK6Z4S2-i9-vW-8">
                    <mxGeometry relative="1" as="geometry"/>
                </mxCell>
                <mxCell id="RqeVjvWLK6Z4S2-i9-vW-5" value="18" style="ellipse;whiteSpace=wrap;html=1;aspect=fixed;sketch=1;hachureGap=4;jiggle=2;curveFitting=1;fontFamily=Architects Daughter;fontSource=https%3A%2F%2Ffonts.googleapis.com%2Fcss%3Ffamily%3DArchitects%2BDaughter;fontSize=20;" vertex="1" parent="1">
                    <mxGeometry x="200" y="160" width="40" height="40" as="geometry"/>
                </mxCell>
                <mxCell id="RqeVjvWLK6Z4S2-i9-vW-6" style="edgeStyle=none;sketch=1;hachureGap=4;jiggle=2;curveFitting=1;html=1;exitX=0;exitY=0;exitDx=0;exitDy=0;entryX=1;entryY=0;entryDx=0;entryDy=0;fontFamily=Architects Daughter;fontSource=https%3A%2F%2Ffonts.googleapis.com%2Fcss%3Ffamily%3DArchitects%2BDaughter;fontSize=16;" edge="1" parent="1" source="RqeVjvWLK6Z4S2-i9-vW-5" target="RqeVjvWLK6Z4S2-i9-vW-5">
                    <mxGeometry relative="1" as="geometry">
                        <Array as="points">
                            <mxPoint x="200" y="130"/>
                            <mxPoint x="220" y="120"/>
                            <mxPoint x="240" y="130"/>
                        </Array>
                    </mxGeometry>
                </mxCell>
                <mxCell id="RqeVjvWLK6Z4S2-i9-vW-7" value="!= &quot; &quot;" style="text;html=1;align=center;verticalAlign=middle;resizable=0;points=[];autosize=1;strokeColor=none;fillColor=none;fontSize=20;fontFamily=Architects Daughter;sketch=1;hachureGap=4;jiggle=2;curveFitting=1;fontSource=https%3A%2F%2Ffonts.googleapis.com%2Fcss%3Ffamily%3DArchitects%2BDaughter;" vertex="1" parent="1">
                    <mxGeometry x="200" y="90" width="60" height="40" as="geometry"/>
                </mxCell>
                <mxCell id="RqeVjvWLK6Z4S2-i9-vW-8" value="19" style="ellipse;whiteSpace=wrap;html=1;aspect=fixed;sketch=1;hachureGap=4;jiggle=2;curveFitting=1;fontFamily=Architects Daughter;fontSource=https%3A%2F%2Ffonts.googleapis.com%2Fcss%3Ffamily%3DArchitects%2BDaughter;fontSize=20;fillColor=#00FF00;" vertex="1" parent="1">
                    <mxGeometry x="320" y="160" width="40" height="40" as="geometry"/>
                </mxCell>
                <mxCell id="RqeVjvWLK6Z4S2-i9-vW-9" value="&quot;" style="text;html=1;align=center;verticalAlign=middle;resizable=0;points=[];autosize=1;strokeColor=none;fillColor=none;fontSize=20;fontFamily=Architects Daughter;sketch=1;hachureGap=4;jiggle=2;curveFitting=1;fontSource=https%3A%2F%2Ffonts.googleapis.com%2Fcss%3Ffamily%3DArchitects%2BDaughter;" vertex="1" parent="1">
                    <mxGeometry x="260" y="150" width="30" height="40" as="geometry"/>
                </mxCell>
                <mxCell id="RqeVjvWLK6Z4S2-i9-vW-10" value="CtA" style="text;html=1;align=center;verticalAlign=middle;resizable=0;points=[];autosize=1;strokeColor=none;fillColor=none;fontSize=20;fontFamily=Architects Daughter;sketch=1;hachureGap=4;jiggle=2;curveFitting=1;fontSource=https%3A%2F%2Ffonts.googleapis.com%2Fcss%3Ffamily%3DArchitects%2BDaughter;" vertex="1" parent="1">
                    <mxGeometry x="310" y="200" width="60" height="40" as="geometry"/>
                </mxCell>
                <mxCell id="RqeVjvWLK6Z4S2-i9-vW-11" value="" style="endArrow=classic;html=1;sketch=1;hachureGap=4;jiggle=2;curveFitting=1;fontFamily=Architects Daughter;fontSource=https%3A%2F%2Ffonts.googleapis.com%2Fcss%3Ffamily%3DArchitects%2BDaughter;fontSize=16;entryX=0;entryY=0.5;entryDx=0;entryDy=0;" edge="1" parent="1" target="RqeVjvWLK6Z4S2-i9-vW-3">
                    <mxGeometry width="50" height="50" relative="1" as="geometry">
                        <mxPoint x="80" y="300" as="sourcePoint"/>
                        <mxPoint x="110" y="300" as="targetPoint"/>
                        <Array as="points"/>
                    </mxGeometry>
                </mxCell>
            </root>
        </mxGraphModel>
    </diagram>
    <diagram id="pUb03p1WpClI3-L1Mb-7" name="Bloques">
        <mxGraphModel dx="1838" dy="1758" grid="1" gridSize="10" guides="1" tooltips="1" connect="1" arrows="1" fold="1" page="1" pageScale="1" pageWidth="850" pageHeight="1100" math="0" shadow="0">
            <root>
                <mxCell id="0"/>
                <mxCell id="1" parent="0"/>
                <mxCell id="_fzrolvzXmsKPZZHSgtj-1" value="" style="edgeStyle=none;html=1;sketch=1;curveFitting=1;jiggle=2;" edge="1" parent="1" source="_fzrolvzXmsKPZZHSgtj-2" target="_fzrolvzXmsKPZZHSgtj-3">
                    <mxGeometry relative="1" as="geometry"/>
                </mxCell>
                <mxCell id="_fzrolvzXmsKPZZHSgtj-2" value="constvars" style="whiteSpace=wrap;html=1;sketch=1;curveFitting=1;jiggle=2;" vertex="1" parent="1">
                    <mxGeometry x="60" y="160" width="70" height="40" as="geometry"/>
                </mxCell>
                <mxCell id="_fzrolvzXmsKPZZHSgtj-3" value="funciones" style="whiteSpace=wrap;html=1;sketch=1;curveFitting=1;jiggle=2;" vertex="1" parent="1">
                    <mxGeometry x="200" y="160" width="70" height="40" as="geometry"/>
                </mxCell>
                <mxCell id="_fzrolvzXmsKPZZHSgtj-4" value="" style="endArrow=classic;html=1;entryX=0;entryY=0.5;entryDx=0;entryDy=0;sketch=1;curveFitting=1;jiggle=2;" edge="1" parent="1" target="_fzrolvzXmsKPZZHSgtj-2">
                    <mxGeometry width="50" height="50" relative="1" as="geometry">
                        <mxPoint x="20" y="180" as="sourcePoint"/>
                        <mxPoint x="60" y="150" as="targetPoint"/>
                    </mxGeometry>
                </mxCell>
                <mxCell id="_fzrolvzXmsKPZZHSgtj-5" value="" style="endArrow=classic;html=1;sketch=1;curveFitting=1;jiggle=2;" edge="1" parent="1">
                    <mxGeometry width="50" height="50" relative="1" as="geometry">
                        <mxPoint x="30" y="180" as="sourcePoint"/>
                        <mxPoint x="150" y="180" as="targetPoint"/>
                        <Array as="points">
                            <mxPoint x="30" y="140"/>
                            <mxPoint x="150" y="140"/>
                        </Array>
                    </mxGeometry>
                </mxCell>
                <mxCell id="_fzrolvzXmsKPZZHSgtj-6" value="" style="endArrow=classic;html=1;sketch=1;curveFitting=1;jiggle=2;" edge="1" parent="1">
                    <mxGeometry width="50" height="50" relative="1" as="geometry">
                        <mxPoint x="175" y="180" as="sourcePoint"/>
                        <mxPoint x="295" y="180" as="targetPoint"/>
                        <Array as="points">
                            <mxPoint x="175" y="140"/>
                            <mxPoint x="295" y="140"/>
                        </Array>
                    </mxGeometry>
                </mxCell>
                <mxCell id="_fzrolvzXmsKPZZHSgtj-7" value="" style="endArrow=classic;html=1;exitX=1;exitY=0.5;exitDx=0;exitDy=0;sketch=1;curveFitting=1;jiggle=2;" edge="1" parent="1" source="_fzrolvzXmsKPZZHSgtj-3">
                    <mxGeometry width="50" height="50" relative="1" as="geometry">
                        <mxPoint x="300" y="240" as="sourcePoint"/>
                        <mxPoint x="320" y="180" as="targetPoint"/>
                    </mxGeometry>
                </mxCell>
                <mxCell id="_fzrolvzXmsKPZZHSgtj-8" value="" style="edgeStyle=none;html=1;sketch=1;curveFitting=1;jiggle=2;" edge="1" parent="1" source="_fzrolvzXmsKPZZHSgtj-9" target="_fzrolvzXmsKPZZHSgtj-13">
                    <mxGeometry relative="1" as="geometry"/>
                </mxCell>
                <mxCell id="_fzrolvzXmsKPZZHSgtj-9" value="constante" style="whiteSpace=wrap;html=1;sketch=1;curveFitting=1;jiggle=2;" vertex="1" parent="1">
                    <mxGeometry x="60" y="280" width="70" height="40" as="geometry"/>
                </mxCell>
                <mxCell id="_fzrolvzXmsKPZZHSgtj-10" value="" style="endArrow=classic;html=1;entryX=0;entryY=0.5;entryDx=0;entryDy=0;sketch=1;curveFitting=1;jiggle=2;" edge="1" parent="1">
                    <mxGeometry width="50" height="50" relative="1" as="geometry">
                        <mxPoint x="20" y="299.5799999999999" as="sourcePoint"/>
                        <mxPoint x="60" y="299.5799999999999" as="targetPoint"/>
                    </mxGeometry>
                </mxCell>
                <mxCell id="_fzrolvzXmsKPZZHSgtj-11" value="" style="endArrow=classic;html=1;sketch=1;curveFitting=1;jiggle=2;" edge="1" parent="1">
                    <mxGeometry width="50" height="50" relative="1" as="geometry">
                        <mxPoint x="35" y="300" as="sourcePoint"/>
                        <mxPoint x="155" y="300" as="targetPoint"/>
                        <Array as="points">
                            <mxPoint x="35" y="260"/>
                            <mxPoint x="155" y="260"/>
                        </Array>
                    </mxGeometry>
                </mxCell>
                <mxCell id="_fzrolvzXmsKPZZHSgtj-12" value="" style="edgeStyle=none;html=1;sketch=1;curveFitting=1;jiggle=2;" edge="1" parent="1" source="_fzrolvzXmsKPZZHSgtj-13" target="_fzrolvzXmsKPZZHSgtj-15">
                    <mxGeometry relative="1" as="geometry"/>
                </mxCell>
                <mxCell id="_fzrolvzXmsKPZZHSgtj-13" value="tipo" style="whiteSpace=wrap;html=1;sketch=1;curveFitting=1;jiggle=2;" vertex="1" parent="1">
                    <mxGeometry x="200" y="280" width="70" height="40" as="geometry"/>
                </mxCell>
                <mxCell id="_fzrolvzXmsKPZZHSgtj-14" value="" style="edgeStyle=none;html=1;sketch=1;curveFitting=1;jiggle=2;" edge="1" parent="1" source="_fzrolvzXmsKPZZHSgtj-15" target="_fzrolvzXmsKPZZHSgtj-17">
                    <mxGeometry relative="1" as="geometry"/>
                </mxCell>
                <mxCell id="_fzrolvzXmsKPZZHSgtj-15" value="ide" style="ellipse;whiteSpace=wrap;html=1;aspect=fixed;sketch=1;curveFitting=1;jiggle=2;" vertex="1" parent="1">
                    <mxGeometry x="320" y="280" width="40" height="40" as="geometry"/>
                </mxCell>
                <mxCell id="_fzrolvzXmsKPZZHSgtj-16" value="" style="edgeStyle=none;html=1;sketch=1;curveFitting=1;jiggle=2;" edge="1" parent="1" source="_fzrolvzXmsKPZZHSgtj-17" target="_fzrolvzXmsKPZZHSgtj-21">
                    <mxGeometry relative="1" as="geometry"/>
                </mxCell>
                <mxCell id="_fzrolvzXmsKPZZHSgtj-17" value="dimen" style="whiteSpace=wrap;html=1;sketch=1;curveFitting=1;jiggle=2;" vertex="1" parent="1">
                    <mxGeometry x="410" y="280" width="70" height="40" as="geometry"/>
                </mxCell>
                <mxCell id="_fzrolvzXmsKPZZHSgtj-18" value="" style="endArrow=classic;html=1;sketch=1;curveFitting=1;jiggle=2;" edge="1" parent="1">
                    <mxGeometry width="50" height="50" relative="1" as="geometry">
                        <mxPoint x="385" y="300" as="sourcePoint"/>
                        <mxPoint x="505" y="300" as="targetPoint"/>
                        <Array as="points">
                            <mxPoint x="385" y="260"/>
                            <mxPoint x="505" y="260"/>
                        </Array>
                    </mxGeometry>
                </mxCell>
                <mxCell id="_fzrolvzXmsKPZZHSgtj-19" style="edgeStyle=none;html=1;exitX=0.5;exitY=0;exitDx=0;exitDy=0;entryX=0;entryY=0.5;entryDx=0;entryDy=0;sketch=1;curveFitting=1;jiggle=2;" edge="1" parent="1" source="_fzrolvzXmsKPZZHSgtj-21" target="_fzrolvzXmsKPZZHSgtj-24">
                    <mxGeometry relative="1" as="geometry">
                        <Array as="points">
                            <mxPoint x="580" y="220"/>
                        </Array>
                    </mxGeometry>
                </mxCell>
                <mxCell id="_fzrolvzXmsKPZZHSgtj-20" value="" style="edgeStyle=none;html=1;sketch=1;curveFitting=1;jiggle=2;" edge="1" parent="1" source="_fzrolvzXmsKPZZHSgtj-21" target="_fzrolvzXmsKPZZHSgtj-26">
                    <mxGeometry relative="1" as="geometry"/>
                </mxCell>
                <mxCell id="_fzrolvzXmsKPZZHSgtj-21" value=":=" style="ellipse;whiteSpace=wrap;html=1;aspect=fixed;sketch=1;curveFitting=1;jiggle=2;" vertex="1" parent="1">
                    <mxGeometry x="560" y="280" width="40" height="40" as="geometry"/>
                </mxCell>
                <mxCell id="_fzrolvzXmsKPZZHSgtj-22" value="" style="edgeStyle=none;html=1;sketch=1;curveFitting=1;jiggle=2;" edge="1" parent="1" source="_fzrolvzXmsKPZZHSgtj-24" target="_fzrolvzXmsKPZZHSgtj-28">
                    <mxGeometry relative="1" as="geometry"/>
                </mxCell>
                <mxCell id="_fzrolvzXmsKPZZHSgtj-23" style="edgeStyle=none;html=1;exitX=0.5;exitY=0;exitDx=0;exitDy=0;entryX=0;entryY=0.5;entryDx=0;entryDy=0;sketch=1;curveFitting=1;jiggle=2;" edge="1" parent="1" source="_fzrolvzXmsKPZZHSgtj-24" target="_fzrolvzXmsKPZZHSgtj-32">
                    <mxGeometry relative="1" as="geometry">
                        <Array as="points">
                            <mxPoint x="630" y="140"/>
                        </Array>
                    </mxGeometry>
                </mxCell>
                <mxCell id="_fzrolvzXmsKPZZHSgtj-24" value="[" style="ellipse;whiteSpace=wrap;html=1;aspect=fixed;sketch=1;curveFitting=1;jiggle=2;" vertex="1" parent="1">
                    <mxGeometry x="610" y="200" width="40" height="40" as="geometry"/>
                </mxCell>
                <mxCell id="_fzrolvzXmsKPZZHSgtj-25" value="" style="edgeStyle=none;html=1;sketch=1;curveFitting=1;jiggle=2;" edge="1" parent="1" source="_fzrolvzXmsKPZZHSgtj-26" target="_fzrolvzXmsKPZZHSgtj-33">
                    <mxGeometry relative="1" as="geometry"/>
                </mxCell>
                <mxCell id="_fzrolvzXmsKPZZHSgtj-26" value="cte" style="whiteSpace=wrap;html=1;sketch=1;curveFitting=1;jiggle=2;" vertex="1" parent="1">
                    <mxGeometry x="680" y="280" width="70" height="40" as="geometry"/>
                </mxCell>
                <mxCell id="_fzrolvzXmsKPZZHSgtj-27" value="" style="edgeStyle=none;html=1;sketch=1;curveFitting=1;jiggle=2;" edge="1" parent="1" source="_fzrolvzXmsKPZZHSgtj-28" target="_fzrolvzXmsKPZZHSgtj-30">
                    <mxGeometry relative="1" as="geometry"/>
                </mxCell>
                <mxCell id="_fzrolvzXmsKPZZHSgtj-28" value="cte" style="whiteSpace=wrap;html=1;sketch=1;curveFitting=1;jiggle=2;" vertex="1" parent="1">
                    <mxGeometry x="680" y="200" width="70" height="40" as="geometry"/>
                </mxCell>
                <mxCell id="_fzrolvzXmsKPZZHSgtj-29" style="edgeStyle=none;html=1;exitX=0.5;exitY=1;exitDx=0;exitDy=0;sketch=1;curveFitting=1;jiggle=2;" edge="1" parent="1" source="_fzrolvzXmsKPZZHSgtj-30">
                    <mxGeometry relative="1" as="geometry">
                        <mxPoint x="810.3333333333335" y="300" as="targetPoint"/>
                    </mxGeometry>
                </mxCell>
                <mxCell id="_fzrolvzXmsKPZZHSgtj-30" value="]" style="ellipse;whiteSpace=wrap;html=1;aspect=fixed;sketch=1;curveFitting=1;jiggle=2;" vertex="1" parent="1">
                    <mxGeometry x="790" y="200" width="40" height="40" as="geometry"/>
                </mxCell>
                <mxCell id="_fzrolvzXmsKPZZHSgtj-31" style="edgeStyle=none;html=1;exitX=1;exitY=0.5;exitDx=0;exitDy=0;entryX=0.5;entryY=0;entryDx=0;entryDy=0;sketch=1;curveFitting=1;jiggle=2;" edge="1" parent="1" source="_fzrolvzXmsKPZZHSgtj-32" target="_fzrolvzXmsKPZZHSgtj-30">
                    <mxGeometry relative="1" as="geometry">
                        <Array as="points">
                            <mxPoint x="810" y="140"/>
                        </Array>
                    </mxGeometry>
                </mxCell>
                <mxCell id="_fzrolvzXmsKPZZHSgtj-32" value="," style="ellipse;whiteSpace=wrap;html=1;aspect=fixed;sketch=1;curveFitting=1;jiggle=2;" vertex="1" parent="1">
                    <mxGeometry x="695" y="120" width="40" height="40" as="geometry"/>
                </mxCell>
                <mxCell id="_fzrolvzXmsKPZZHSgtj-33" value=";" style="ellipse;whiteSpace=wrap;html=1;aspect=fixed;sketch=1;curveFitting=1;jiggle=2;" vertex="1" parent="1">
                    <mxGeometry x="860" y="280" width="40" height="40" as="geometry"/>
                </mxCell>
                <mxCell id="_fzrolvzXmsKPZZHSgtj-34" value="" style="endArrow=classic;html=1;exitX=1;exitY=0.5;exitDx=0;exitDy=0;sketch=1;curveFitting=1;jiggle=2;" edge="1" parent="1" source="_fzrolvzXmsKPZZHSgtj-33">
                    <mxGeometry width="50" height="50" relative="1" as="geometry">
                        <mxPoint x="920" y="330" as="sourcePoint"/>
                        <mxPoint x="950" y="300" as="targetPoint"/>
                    </mxGeometry>
                </mxCell>
                <mxCell id="_fzrolvzXmsKPZZHSgtj-35" value="" style="endArrow=classic;html=1;sketch=1;curveFitting=1;jiggle=2;" edge="1" parent="1">
                    <mxGeometry width="50" height="50" relative="1" as="geometry">
                        <mxPoint x="530" y="300" as="sourcePoint"/>
                        <mxPoint x="840" y="300" as="targetPoint"/>
                        <Array as="points">
                            <mxPoint x="530" y="110"/>
                            <mxPoint x="840" y="110"/>
                        </Array>
                    </mxGeometry>
                </mxCell>
                <mxCell id="_fzrolvzXmsKPZZHSgtj-36" style="edgeStyle=none;html=1;exitX=0;exitY=0.5;exitDx=0;exitDy=0;sketch=1;curveFitting=1;jiggle=2;" edge="1" parent="1" source="_fzrolvzXmsKPZZHSgtj-37">
                    <mxGeometry relative="1" as="geometry">
                        <mxPoint x="290" y="300" as="targetPoint"/>
                        <Array as="points">
                            <mxPoint x="290" y="400"/>
                        </Array>
                    </mxGeometry>
                </mxCell>
                <mxCell id="_fzrolvzXmsKPZZHSgtj-37" value="," style="ellipse;whiteSpace=wrap;html=1;aspect=fixed;sketch=1;curveFitting=1;jiggle=2;" vertex="1" parent="1">
                    <mxGeometry x="560" y="380" width="40" height="40" as="geometry"/>
                </mxCell>
                <mxCell id="_fzrolvzXmsKPZZHSgtj-38" value="" style="endArrow=classic;html=1;entryX=1;entryY=0.5;entryDx=0;entryDy=0;sketch=1;curveFitting=1;jiggle=2;" edge="1" parent="1" target="_fzrolvzXmsKPZZHSgtj-37">
                    <mxGeometry width="50" height="50" relative="1" as="geometry">
                        <mxPoint x="830" y="300" as="sourcePoint"/>
                        <mxPoint x="760" y="380" as="targetPoint"/>
                        <Array as="points">
                            <mxPoint x="830" y="400"/>
                        </Array>
                    </mxGeometry>
                </mxCell>
                <mxCell id="_fzrolvzXmsKPZZHSgtj-39" style="edgeStyle=none;html=1;exitX=1;exitY=0.5;exitDx=0;exitDy=0;sketch=1;curveFitting=1;jiggle=2;" edge="1" parent="1" source="_fzrolvzXmsKPZZHSgtj-40">
                    <mxGeometry relative="1" as="geometry">
                        <mxPoint x="225" y="524.7142857142856" as="targetPoint"/>
                    </mxGeometry>
                </mxCell>
                <mxCell id="_fzrolvzXmsKPZZHSgtj-40" value="entero" style="rounded=1;whiteSpace=wrap;html=1;sketch=1;curveFitting=1;jiggle=2;" vertex="1" parent="1">
                    <mxGeometry x="75" y="510" width="65" height="30" as="geometry"/>
                </mxCell>
                <mxCell id="_fzrolvzXmsKPZZHSgtj-41" style="edgeStyle=none;html=1;exitX=1;exitY=0.5;exitDx=0;exitDy=0;sketch=1;curveFitting=1;jiggle=2;" edge="1" parent="1" source="_fzrolvzXmsKPZZHSgtj-42">
                    <mxGeometry relative="1" as="geometry">
                        <mxPoint x="190" y="520" as="targetPoint"/>
                        <Array as="points">
                            <mxPoint x="190" y="575"/>
                        </Array>
                    </mxGeometry>
                </mxCell>
                <mxCell id="_fzrolvzXmsKPZZHSgtj-42" value="decimal" style="rounded=1;whiteSpace=wrap;html=1;sketch=1;curveFitting=1;jiggle=2;" vertex="1" parent="1">
                    <mxGeometry x="75" y="560" width="65" height="30" as="geometry"/>
                </mxCell>
                <mxCell id="_fzrolvzXmsKPZZHSgtj-43" style="edgeStyle=none;html=1;exitX=1;exitY=0.5;exitDx=0;exitDy=0;sketch=1;curveFitting=1;jiggle=2;" edge="1" parent="1" source="_fzrolvzXmsKPZZHSgtj-44">
                    <mxGeometry relative="1" as="geometry">
                        <mxPoint x="190" y="520" as="targetPoint"/>
                        <Array as="points">
                            <mxPoint x="190" y="625"/>
                        </Array>
                    </mxGeometry>
                </mxCell>
                <mxCell id="_fzrolvzXmsKPZZHSgtj-44" value="logico" style="rounded=1;whiteSpace=wrap;html=1;sketch=1;curveFitting=1;jiggle=2;" vertex="1" parent="1">
                    <mxGeometry x="75" y="610" width="65" height="30" as="geometry"/>
                </mxCell>
                <mxCell id="_fzrolvzXmsKPZZHSgtj-45" style="edgeStyle=none;html=1;exitX=1;exitY=0.5;exitDx=0;exitDy=0;sketch=1;curveFitting=1;jiggle=2;" edge="1" parent="1" source="_fzrolvzXmsKPZZHSgtj-46">
                    <mxGeometry relative="1" as="geometry">
                        <mxPoint x="190" y="520" as="targetPoint"/>
                        <Array as="points">
                            <mxPoint x="190" y="675"/>
                        </Array>
                    </mxGeometry>
                </mxCell>
                <mxCell id="_fzrolvzXmsKPZZHSgtj-46" value="palabra" style="rounded=1;whiteSpace=wrap;html=1;sketch=1;curveFitting=1;jiggle=2;" vertex="1" parent="1">
                    <mxGeometry x="75" y="660" width="65" height="30" as="geometry"/>
                </mxCell>
                <mxCell id="_fzrolvzXmsKPZZHSgtj-47" value="" style="endArrow=classic;html=1;fontFamily=Helvetica;fontSize=11;fontColor=default;align=center;strokeColor=default;sketch=1;curveFitting=1;jiggle=2;" edge="1" parent="1" target="_fzrolvzXmsKPZZHSgtj-40">
                    <mxGeometry width="50" height="50" relative="1" as="geometry">
                        <mxPoint x="-25" y="600" as="sourcePoint"/>
                        <mxPoint x="25" y="590" as="targetPoint"/>
                        <Array as="points">
                            <mxPoint x="25" y="600"/>
                            <mxPoint x="25" y="525"/>
                        </Array>
                    </mxGeometry>
                </mxCell>
                <mxCell id="_fzrolvzXmsKPZZHSgtj-48" value="" style="endArrow=classic;html=1;entryX=0;entryY=0.5;entryDx=0;entryDy=0;sketch=1;curveFitting=1;jiggle=2;" edge="1" parent="1" target="_fzrolvzXmsKPZZHSgtj-46">
                    <mxGeometry width="50" height="50" relative="1" as="geometry">
                        <mxPoint x="25" y="600" as="sourcePoint"/>
                        <mxPoint x="35" y="630" as="targetPoint"/>
                        <Array as="points">
                            <mxPoint x="25" y="675"/>
                        </Array>
                    </mxGeometry>
                </mxCell>
                <mxCell id="_fzrolvzXmsKPZZHSgtj-49" value="" style="endArrow=classic;html=1;entryX=0;entryY=0.5;entryDx=0;entryDy=0;sketch=1;curveFitting=1;jiggle=2;" edge="1" parent="1" target="_fzrolvzXmsKPZZHSgtj-42">
                    <mxGeometry width="50" height="50" relative="1" as="geometry">
                        <mxPoint x="25" y="575" as="sourcePoint"/>
                        <mxPoint x="-35" y="640" as="targetPoint"/>
                    </mxGeometry>
                </mxCell>
                <mxCell id="_fzrolvzXmsKPZZHSgtj-50" value="" style="endArrow=classic;html=1;sketch=1;curveFitting=1;jiggle=2;" edge="1" parent="1">
                    <mxGeometry width="50" height="50" relative="1" as="geometry">
                        <mxPoint x="25" y="630" as="sourcePoint"/>
                        <mxPoint x="65" y="630" as="targetPoint"/>
                    </mxGeometry>
                </mxCell>
                <mxCell id="_fzrolvzXmsKPZZHSgtj-51" style="edgeStyle=none;html=1;exitX=1;exitY=0.5;exitDx=0;exitDy=0;sketch=1;curveFitting=1;jiggle=2;" edge="1" parent="1" source="_fzrolvzXmsKPZZHSgtj-52">
                    <mxGeometry relative="1" as="geometry">
                        <mxPoint x="234.99999999999977" y="-74.71428571428567" as="targetPoint"/>
                    </mxGeometry>
                </mxCell>
                <mxCell id="_fzrolvzXmsKPZZHSgtj-52" value="Ent" style="rounded=1;whiteSpace=wrap;html=1;sketch=1;curveFitting=1;jiggle=2;" vertex="1" parent="1">
                    <mxGeometry x="65" y="-90" width="65" height="30" as="geometry"/>
                </mxCell>
                <mxCell id="_fzrolvzXmsKPZZHSgtj-53" style="edgeStyle=none;html=1;exitX=1;exitY=0.5;exitDx=0;exitDy=0;sketch=1;curveFitting=1;jiggle=2;" edge="1" parent="1" source="_fzrolvzXmsKPZZHSgtj-54">
                    <mxGeometry relative="1" as="geometry">
                        <mxPoint x="185" y="-80" as="targetPoint"/>
                        <Array as="points">
                            <mxPoint x="185" y="-25"/>
                        </Array>
                    </mxGeometry>
                </mxCell>
                <mxCell id="_fzrolvzXmsKPZZHSgtj-54" value="Dec" style="rounded=1;whiteSpace=wrap;html=1;sketch=1;curveFitting=1;jiggle=2;" vertex="1" parent="1">
                    <mxGeometry x="65" y="-40" width="65" height="30" as="geometry"/>
                </mxCell>
                <mxCell id="_fzrolvzXmsKPZZHSgtj-55" style="edgeStyle=none;html=1;exitX=1;exitY=0.5;exitDx=0;exitDy=0;sketch=1;curveFitting=1;jiggle=2;" edge="1" parent="1" source="_fzrolvzXmsKPZZHSgtj-56">
                    <mxGeometry relative="1" as="geometry">
                        <mxPoint x="185" y="-80" as="targetPoint"/>
                        <Array as="points">
                            <mxPoint x="185" y="25"/>
                        </Array>
                    </mxGeometry>
                </mxCell>
                <mxCell id="_fzrolvzXmsKPZZHSgtj-56" value="CtA" style="rounded=1;whiteSpace=wrap;html=1;sketch=1;curveFitting=1;jiggle=2;" vertex="1" parent="1">
                    <mxGeometry x="65" y="10" width="65" height="30" as="geometry"/>
                </mxCell>
                <mxCell id="_fzrolvzXmsKPZZHSgtj-57" style="edgeStyle=none;html=1;exitX=1;exitY=0.5;exitDx=0;exitDy=0;sketch=1;curveFitting=1;jiggle=2;" edge="1" parent="1" source="_fzrolvzXmsKPZZHSgtj-58">
                    <mxGeometry relative="1" as="geometry">
                        <mxPoint x="185" y="-80" as="targetPoint"/>
                        <Array as="points">
                            <mxPoint x="185" y="75"/>
                        </Array>
                    </mxGeometry>
                </mxCell>
                <mxCell id="_fzrolvzXmsKPZZHSgtj-58" value="CtL" style="rounded=1;whiteSpace=wrap;html=1;sketch=1;curveFitting=1;jiggle=2;" vertex="1" parent="1">
                    <mxGeometry x="65" y="60" width="65" height="30" as="geometry"/>
                </mxCell>
                <mxCell id="_fzrolvzXmsKPZZHSgtj-59" value="" style="endArrow=classic;html=1;fontFamily=Helvetica;fontSize=11;fontColor=default;align=center;strokeColor=default;sketch=1;curveFitting=1;jiggle=2;" edge="1" parent="1" target="_fzrolvzXmsKPZZHSgtj-52">
                    <mxGeometry width="50" height="50" relative="1" as="geometry">
                        <mxPoint x="-35" as="sourcePoint"/>
                        <mxPoint x="15" y="-10" as="targetPoint"/>
                        <Array as="points">
                            <mxPoint x="15"/>
                            <mxPoint x="15" y="-75"/>
                        </Array>
                    </mxGeometry>
                </mxCell>
                <mxCell id="_fzrolvzXmsKPZZHSgtj-60" value="" style="endArrow=classic;html=1;entryX=0;entryY=0.5;entryDx=0;entryDy=0;sketch=1;curveFitting=1;jiggle=2;" edge="1" parent="1" target="_fzrolvzXmsKPZZHSgtj-58">
                    <mxGeometry width="50" height="50" relative="1" as="geometry">
                        <mxPoint x="15" as="sourcePoint"/>
                        <mxPoint x="25" y="30" as="targetPoint"/>
                        <Array as="points">
                            <mxPoint x="15" y="75"/>
                        </Array>
                    </mxGeometry>
                </mxCell>
                <mxCell id="_fzrolvzXmsKPZZHSgtj-61" value="" style="endArrow=classic;html=1;entryX=0;entryY=0.5;entryDx=0;entryDy=0;sketch=1;curveFitting=1;jiggle=2;" edge="1" parent="1" target="_fzrolvzXmsKPZZHSgtj-54">
                    <mxGeometry width="50" height="50" relative="1" as="geometry">
                        <mxPoint x="15" y="-25" as="sourcePoint"/>
                        <mxPoint x="-45" y="40" as="targetPoint"/>
                    </mxGeometry>
                </mxCell>
                <mxCell id="_fzrolvzXmsKPZZHSgtj-62" value="" style="endArrow=classic;html=1;sketch=1;curveFitting=1;jiggle=2;" edge="1" parent="1">
                    <mxGeometry width="50" height="50" relative="1" as="geometry">
                        <mxPoint x="15" y="30" as="sourcePoint"/>
                        <mxPoint x="55" y="30" as="targetPoint"/>
                    </mxGeometry>
                </mxCell>
                <mxCell id="_fzrolvzXmsKPZZHSgtj-63" value="" style="edgeStyle=none;html=1;sketch=1;curveFitting=1;jiggle=2;" edge="1" parent="1" source="_fzrolvzXmsKPZZHSgtj-64" target="_fzrolvzXmsKPZZHSgtj-67">
                    <mxGeometry relative="1" as="geometry"/>
                </mxCell>
                <mxCell id="_fzrolvzXmsKPZZHSgtj-64" value="[" style="ellipse;whiteSpace=wrap;html=1;aspect=fixed;sketch=1;curveFitting=1;jiggle=2;" vertex="1" parent="1">
                    <mxGeometry x="480" y="-40" width="40" height="40" as="geometry"/>
                </mxCell>
                <mxCell id="_fzrolvzXmsKPZZHSgtj-65" value="" style="endArrow=classic;html=1;entryX=0;entryY=0.5;entryDx=0;entryDy=0;sketch=1;curveFitting=1;jiggle=2;" edge="1" parent="1" target="_fzrolvzXmsKPZZHSgtj-64">
                    <mxGeometry width="50" height="50" relative="1" as="geometry">
                        <mxPoint x="440" y="-20" as="sourcePoint"/>
                        <mxPoint x="470" as="targetPoint"/>
                    </mxGeometry>
                </mxCell>
                <mxCell id="_fzrolvzXmsKPZZHSgtj-66" value="" style="edgeStyle=none;html=1;sketch=1;curveFitting=1;jiggle=2;" edge="1" parent="1" source="_fzrolvzXmsKPZZHSgtj-67" target="_fzrolvzXmsKPZZHSgtj-68">
                    <mxGeometry relative="1" as="geometry"/>
                </mxCell>
                <mxCell id="_fzrolvzXmsKPZZHSgtj-67" value="Ide" style="ellipse;whiteSpace=wrap;html=1;aspect=fixed;sketch=1;curveFitting=1;jiggle=2;" vertex="1" parent="1">
                    <mxGeometry x="580" y="-40" width="40" height="40" as="geometry"/>
                </mxCell>
                <mxCell id="_fzrolvzXmsKPZZHSgtj-68" value="]" style="ellipse;whiteSpace=wrap;html=1;aspect=fixed;sketch=1;curveFitting=1;jiggle=2;" vertex="1" parent="1">
                    <mxGeometry x="680" y="-40" width="40" height="40" as="geometry"/>
                </mxCell>
                <mxCell id="_fzrolvzXmsKPZZHSgtj-69" style="edgeStyle=none;html=1;exitX=1;exitY=0.5;exitDx=0;exitDy=0;sketch=1;curveFitting=1;jiggle=2;" edge="1" parent="1" source="_fzrolvzXmsKPZZHSgtj-71">
                    <mxGeometry relative="1" as="geometry">
                        <mxPoint x="650" y="-20" as="targetPoint"/>
                        <Array as="points">
                            <mxPoint x="650" y="40"/>
                        </Array>
                    </mxGeometry>
                </mxCell>
                <mxCell id="_fzrolvzXmsKPZZHSgtj-70" style="edgeStyle=none;html=1;exitX=0;exitY=0.5;exitDx=0;exitDy=0;sketch=1;curveFitting=1;jiggle=2;" edge="1" parent="1" source="_fzrolvzXmsKPZZHSgtj-71">
                    <mxGeometry relative="1" as="geometry">
                        <mxPoint x="550" y="-20" as="targetPoint"/>
                        <Array as="points">
                            <mxPoint x="550" y="40"/>
                        </Array>
                    </mxGeometry>
                </mxCell>
                <mxCell id="_fzrolvzXmsKPZZHSgtj-71" value="cte" style="whiteSpace=wrap;html=1;sketch=1;curveFitting=1;jiggle=2;" vertex="1" parent="1">
                    <mxGeometry x="572.5" y="20" width="55" height="40" as="geometry"/>
                </mxCell>
                <mxCell id="_fzrolvzXmsKPZZHSgtj-72" value="" style="endArrow=classic;html=1;entryX=0;entryY=0.5;entryDx=0;entryDy=0;sketch=1;curveFitting=1;jiggle=2;" edge="1" parent="1">
                    <mxGeometry width="50" height="50" relative="1" as="geometry">
                        <mxPoint x="720" y="-20.36999999999989" as="sourcePoint"/>
                        <mxPoint x="760" y="-20.36999999999989" as="targetPoint"/>
                    </mxGeometry>
                </mxCell>
                <mxCell id="_fzrolvzXmsKPZZHSgtj-73" style="edgeStyle=none;html=1;exitX=1;exitY=0.5;exitDx=0;exitDy=0;sketch=1;curveFitting=1;jiggle=2;" edge="1" parent="1" source="_fzrolvzXmsKPZZHSgtj-74">
                    <mxGeometry relative="1" as="geometry">
                        <mxPoint x="190" y="520" as="targetPoint"/>
                        <Array as="points">
                            <mxPoint x="190" y="725"/>
                        </Array>
                    </mxGeometry>
                </mxCell>
                <mxCell id="_fzrolvzXmsKPZZHSgtj-74" value="sintipo" style="rounded=1;whiteSpace=wrap;html=1;sketch=1;curveFitting=1;jiggle=2;" vertex="1" parent="1">
                    <mxGeometry x="75" y="710" width="65" height="30" as="geometry"/>
                </mxCell>
                <mxCell id="_fzrolvzXmsKPZZHSgtj-75" value="" style="endArrow=classic;html=1;entryX=0;entryY=0.5;entryDx=0;entryDy=0;sketch=1;curveFitting=1;jiggle=2;" edge="1" parent="1" target="_fzrolvzXmsKPZZHSgtj-74">
                    <mxGeometry width="50" height="50" relative="1" as="geometry">
                        <mxPoint x="25" y="600" as="sourcePoint"/>
                        <mxPoint x="185" y="560" as="targetPoint"/>
                        <Array as="points">
                            <mxPoint x="25" y="725"/>
                        </Array>
                    </mxGeometry>
                </mxCell>
                <mxCell id="_fzrolvzXmsKPZZHSgtj-76" value="" style="endArrow=classic;html=1;sketch=1;curveFitting=1;jiggle=2;" edge="1" parent="1">
                    <mxGeometry width="50" height="50" relative="1" as="geometry">
                        <mxPoint x="920" y="300" as="sourcePoint"/>
                        <mxPoint x="30" y="300" as="targetPoint"/>
                        <Array as="points">
                            <mxPoint x="920" y="440"/>
                            <mxPoint x="30" y="440"/>
                        </Array>
                    </mxGeometry>
                </mxCell>
                <mxCell id="_fzrolvzXmsKPZZHSgtj-77" value="" style="edgeStyle=none;hachureGap=4;html=1;fontFamily=Architects Daughter;fontSource=https%3A%2F%2Ffonts.googleapis.com%2Fcss%3Ffamily%3DArchitects%2BDaughter;fontSize=16;sketch=1;curveFitting=1;jiggle=2;" edge="1" parent="1" source="_fzrolvzXmsKPZZHSgtj-78" target="_fzrolvzXmsKPZZHSgtj-80">
                    <mxGeometry relative="1" as="geometry"/>
                </mxCell>
                <mxCell id="_fzrolvzXmsKPZZHSgtj-78" value="tipo" style="rounded=1;whiteSpace=wrap;html=1;sketch=1;curveFitting=1;jiggle=2;" vertex="1" parent="1">
                    <mxGeometry x="380" y="605" width="65" height="30" as="geometry"/>
                </mxCell>
                <mxCell id="_fzrolvzXmsKPZZHSgtj-79" value="" style="edgeStyle=none;hachureGap=4;html=1;fontFamily=Architects Daughter;fontSource=https%3A%2F%2Ffonts.googleapis.com%2Fcss%3Ffamily%3DArchitects%2BDaughter;fontSize=16;sketch=1;curveFitting=1;jiggle=2;" edge="1" parent="1" source="_fzrolvzXmsKPZZHSgtj-80" target="_fzrolvzXmsKPZZHSgtj-82">
                    <mxGeometry relative="1" as="geometry"/>
                </mxCell>
                <mxCell id="_fzrolvzXmsKPZZHSgtj-80" value="Iden" style="ellipse;whiteSpace=wrap;html=1;aspect=fixed;sketch=1;curveFitting=1;jiggle=2;" vertex="1" parent="1">
                    <mxGeometry x="490" y="600" width="40" height="40" as="geometry"/>
                </mxCell>
                <mxCell id="_fzrolvzXmsKPZZHSgtj-81" value="" style="edgeStyle=none;hachureGap=4;html=1;fontFamily=Architects Daughter;fontSource=https%3A%2F%2Ffonts.googleapis.com%2Fcss%3Ffamily%3DArchitects%2BDaughter;fontSize=16;sketch=1;curveFitting=1;jiggle=2;" edge="1" parent="1" source="_fzrolvzXmsKPZZHSgtj-82" target="_fzrolvzXmsKPZZHSgtj-84">
                    <mxGeometry relative="1" as="geometry"/>
                </mxCell>
                <mxCell id="_fzrolvzXmsKPZZHSgtj-82" value="(" style="ellipse;whiteSpace=wrap;html=1;aspect=fixed;sketch=1;curveFitting=1;jiggle=2;" vertex="1" parent="1">
                    <mxGeometry x="580" y="600" width="40" height="40" as="geometry"/>
                </mxCell>
                <mxCell id="_fzrolvzXmsKPZZHSgtj-83" value="" style="edgeStyle=none;hachureGap=4;html=1;fontFamily=Architects Daughter;fontSource=https%3A%2F%2Ffonts.googleapis.com%2Fcss%3Ffamily%3DArchitects%2BDaughter;fontSize=16;sketch=1;curveFitting=1;jiggle=2;" edge="1" parent="1" source="_fzrolvzXmsKPZZHSgtj-84" target="_fzrolvzXmsKPZZHSgtj-86">
                    <mxGeometry relative="1" as="geometry"/>
                </mxCell>
                <mxCell id="_fzrolvzXmsKPZZHSgtj-84" value="params" style="rounded=1;whiteSpace=wrap;html=1;sketch=1;curveFitting=1;jiggle=2;" vertex="1" parent="1">
                    <mxGeometry x="670" y="605" width="65" height="30" as="geometry"/>
                </mxCell>
                <mxCell id="_fzrolvzXmsKPZZHSgtj-85" value="" style="edgeStyle=none;hachureGap=4;html=1;fontFamily=Architects Daughter;fontSource=https%3A%2F%2Ffonts.googleapis.com%2Fcss%3Ffamily%3DArchitects%2BDaughter;fontSize=16;sketch=1;curveFitting=1;jiggle=2;" edge="1" parent="1" source="_fzrolvzXmsKPZZHSgtj-86" target="_fzrolvzXmsKPZZHSgtj-88">
                    <mxGeometry relative="1" as="geometry"/>
                </mxCell>
                <mxCell id="_fzrolvzXmsKPZZHSgtj-86" value=")" style="ellipse;whiteSpace=wrap;html=1;aspect=fixed;sketch=1;curveFitting=1;jiggle=2;" vertex="1" parent="1">
                    <mxGeometry x="800" y="600" width="40" height="40" as="geometry"/>
                </mxCell>
                <mxCell id="_fzrolvzXmsKPZZHSgtj-87" value="" style="edgeStyle=none;hachureGap=4;html=1;fontFamily=Architects Daughter;fontSource=https%3A%2F%2Ffonts.googleapis.com%2Fcss%3Ffamily%3DArchitects%2BDaughter;fontSize=16;sketch=1;curveFitting=1;jiggle=2;" edge="1" parent="1" source="_fzrolvzXmsKPZZHSgtj-88" target="_fzrolvzXmsKPZZHSgtj-89">
                    <mxGeometry relative="1" as="geometry"/>
                </mxCell>
                <mxCell id="_fzrolvzXmsKPZZHSgtj-88" value="bloque" style="rounded=1;whiteSpace=wrap;html=1;sketch=1;curveFitting=1;jiggle=2;" vertex="1" parent="1">
                    <mxGeometry x="900" y="605" width="65" height="30" as="geometry"/>
                </mxCell>
                <mxCell id="_fzrolvzXmsKPZZHSgtj-89" value=";" style="ellipse;whiteSpace=wrap;html=1;aspect=fixed;sketch=1;curveFitting=1;jiggle=2;" vertex="1" parent="1">
                    <mxGeometry x="1030" y="600" width="40" height="40" as="geometry"/>
                </mxCell>
                <mxCell id="_fzrolvzXmsKPZZHSgtj-90" value="" style="endArrow=classic;html=1;hachureGap=4;fontFamily=Architects Daughter;fontSource=https%3A%2F%2Ffonts.googleapis.com%2Fcss%3Ffamily%3DArchitects%2BDaughter;fontSize=16;entryX=0;entryY=0.5;entryDx=0;entryDy=0;sketch=1;curveFitting=1;jiggle=2;" edge="1" parent="1" target="_fzrolvzXmsKPZZHSgtj-78">
                    <mxGeometry width="50" height="50" relative="1" as="geometry">
                        <mxPoint x="330" y="620" as="sourcePoint"/>
                        <mxPoint x="340" y="620" as="targetPoint"/>
                    </mxGeometry>
                </mxCell>
                <mxCell id="_fzrolvzXmsKPZZHSgtj-91" value="" style="endArrow=classic;html=1;hachureGap=4;fontFamily=Architects Daughter;fontSource=https%3A%2F%2Ffonts.googleapis.com%2Fcss%3Ffamily%3DArchitects%2BDaughter;fontSize=16;exitX=1;exitY=0.5;exitDx=0;exitDy=0;sketch=1;curveFitting=1;jiggle=2;" edge="1" parent="1" source="_fzrolvzXmsKPZZHSgtj-89">
                    <mxGeometry width="50" height="50" relative="1" as="geometry">
                        <mxPoint x="1180" y="710" as="sourcePoint"/>
                        <mxPoint x="1130" y="620" as="targetPoint"/>
                    </mxGeometry>
                </mxCell>
                <mxCell id="_fzrolvzXmsKPZZHSgtj-92" value="" style="endArrow=classic;html=1;sketch=1;curveFitting=1;jiggle=2;" edge="1" parent="1">
                    <mxGeometry width="50" height="50" relative="1" as="geometry">
                        <mxPoint x="640" y="620" as="sourcePoint"/>
                        <mxPoint x="760" y="620" as="targetPoint"/>
                        <Array as="points">
                            <mxPoint x="640" y="580"/>
                            <mxPoint x="760" y="580"/>
                        </Array>
                    </mxGeometry>
                </mxCell>
                <mxCell id="_fzrolvzXmsKPZZHSgtj-93" value="funciones" style="text;html=1;align=center;verticalAlign=middle;resizable=0;points=[];autosize=1;strokeColor=none;fillColor=none;fontSize=20;fontFamily=Architects Daughter;hachureGap=4;fontSource=https%3A%2F%2Ffonts.googleapis.com%2Fcss%3Ffamily%3DArchitects%2BDaughter;sketch=1;curveFitting=1;jiggle=2;fontStyle=4" vertex="1" parent="1">
                    <mxGeometry x="310" y="555" width="110" height="40" as="geometry"/>
                </mxCell>
                <mxCell id="_fzrolvzXmsKPZZHSgtj-94" value="tipo" style="text;html=1;align=center;verticalAlign=middle;resizable=0;points=[];autosize=1;strokeColor=none;fillColor=none;fontSize=20;fontFamily=Architects Daughter;hachureGap=4;fontSource=https%3A%2F%2Ffonts.googleapis.com%2Fcss%3Ffamily%3DArchitects%2BDaughter;sketch=1;curveFitting=1;jiggle=2;fontStyle=4" vertex="1" parent="1">
                    <mxGeometry x="-50" y="520" width="60" height="40" as="geometry"/>
                </mxCell>
                <mxCell id="_fzrolvzXmsKPZZHSgtj-95" value="constvars" style="text;html=1;align=center;verticalAlign=middle;resizable=0;points=[];autosize=1;strokeColor=none;fillColor=none;fontSize=20;fontFamily=Architects Daughter;hachureGap=4;fontSource=https%3A%2F%2Ffonts.googleapis.com%2Fcss%3Ffamily%3DArchitects%2BDaughter;sketch=1;curveFitting=1;jiggle=2;fontStyle=4" vertex="1" parent="1">
                    <mxGeometry x="-100" y="240" width="120" height="40" as="geometry"/>
                </mxCell>
                <mxCell id="_fzrolvzXmsKPZZHSgtj-96" value="prgm" style="text;html=1;align=center;verticalAlign=middle;resizable=0;points=[];autosize=1;strokeColor=none;fillColor=none;fontSize=20;fontFamily=Architects Daughter;hachureGap=4;fontSource=https%3A%2F%2Ffonts.googleapis.com%2Fcss%3Ffamily%3DArchitects%2BDaughter;sketch=1;curveFitting=1;jiggle=2;fontStyle=4" vertex="1" parent="1">
                    <mxGeometry x="-75" y="110" width="70" height="40" as="geometry"/>
                </mxCell>
                <mxCell id="_fzrolvzXmsKPZZHSgtj-97" value="cte" style="text;html=1;align=center;verticalAlign=middle;resizable=0;points=[];autosize=1;strokeColor=none;fillColor=none;fontSize=20;fontFamily=Architects Daughter;hachureGap=4;fontSource=https%3A%2F%2Ffonts.googleapis.com%2Fcss%3Ffamily%3DArchitects%2BDaughter;sketch=1;curveFitting=1;jiggle=2;fontStyle=4" vertex="1" parent="1">
                    <mxGeometry x="-70" y="-90" width="60" height="40" as="geometry"/>
                </mxCell>
                <mxCell id="_fzrolvzXmsKPZZHSgtj-98" value="dimension" style="text;html=1;align=center;verticalAlign=middle;resizable=0;points=[];autosize=1;strokeColor=none;fillColor=none;fontSize=20;fontFamily=Architects Daughter;hachureGap=4;fontSource=https%3A%2F%2Ffonts.googleapis.com%2Fcss%3Ffamily%3DArchitects%2BDaughter;sketch=1;curveFitting=1;jiggle=2;fontStyle=4" vertex="1" parent="1">
                    <mxGeometry x="350" y="-80" width="110" height="40" as="geometry"/>
                </mxCell>
                <mxCell id="_fzrolvzXmsKPZZHSgtj-99" value="" style="endArrow=classic;html=1;hachureGap=4;fontFamily=Architects Daughter;fontSource=https%3A%2F%2Ffonts.googleapis.com%2Fcss%3Ffamily%3DArchitects%2BDaughter;fontSize=16;sketch=1;curveFitting=1;jiggle=2;" edge="1" parent="1">
                    <mxGeometry width="50" height="50" relative="1" as="geometry">
                        <mxPoint x="300" y="180" as="sourcePoint"/>
                        <mxPoint x="40" y="180" as="targetPoint"/>
                        <Array as="points">
                            <mxPoint x="300" y="230"/>
                            <mxPoint x="40" y="230"/>
                        </Array>
                    </mxGeometry>
                </mxCell>
                <mxCell id="_fzrolvzXmsKPZZHSgtj-100" value="" style="edgeStyle=none;hachureGap=4;html=1;fontFamily=Architects Daughter;fontSource=https%3A%2F%2Ffonts.googleapis.com%2Fcss%3Ffamily%3DArchitects%2BDaughter;fontSize=16;sketch=1;curveFitting=1;jiggle=2;" edge="1" parent="1" target="_fzrolvzXmsKPZZHSgtj-105">
                    <mxGeometry relative="1" as="geometry">
                        <mxPoint x="995" y="-20" as="sourcePoint"/>
                    </mxGeometry>
                </mxCell>
                <mxCell id="_fzrolvzXmsKPZZHSgtj-102" value="Block" style="text;html=1;align=center;verticalAlign=middle;resizable=0;points=[];autosize=1;strokeColor=none;fillColor=none;fontSize=20;fontFamily=Architects Daughter;hachureGap=4;fontSource=https%3A%2F%2Ffonts.googleapis.com%2Fcss%3Ffamily%3DArchitects%2BDaughter;sketch=1;curveFitting=1;jiggle=2;fontStyle=4" vertex="1" parent="1">
                    <mxGeometry x="870" y="-80" width="80" height="40" as="geometry"/>
                </mxCell>
                <mxCell id="_fzrolvzXmsKPZZHSgtj-103" value="" style="endArrow=classic;html=1;hachureGap=4;fontFamily=Architects Daughter;fontSource=https%3A%2F%2Ffonts.googleapis.com%2Fcss%3Ffamily%3DArchitects%2BDaughter;fontSize=16;entryX=0;entryY=0.5;entryDx=0;entryDy=0;sketch=1;curveFitting=1;jiggle=2;" edge="1" parent="1">
                    <mxGeometry width="50" height="50" relative="1" as="geometry">
                        <mxPoint x="890" y="-20" as="sourcePoint"/>
                        <mxPoint x="930" y="-20" as="targetPoint"/>
                    </mxGeometry>
                </mxCell>
                <mxCell id="_fzrolvzXmsKPZZHSgtj-104" value="" style="edgeStyle=none;hachureGap=4;html=1;fontFamily=Architects Daughter;fontSource=https%3A%2F%2Ffonts.googleapis.com%2Fcss%3Ffamily%3DArchitects%2BDaughter;fontSize=16;sketch=1;curveFitting=1;jiggle=2;" edge="1" parent="1" source="_fzrolvzXmsKPZZHSgtj-105" target="_fzrolvzXmsKPZZHSgtj-107">
                    <mxGeometry relative="1" as="geometry"/>
                </mxCell>
                <mxCell id="_fzrolvzXmsKPZZHSgtj-105" value="constvars" style="rounded=1;whiteSpace=wrap;html=1;sketch=1;curveFitting=1;jiggle=2;" vertex="1" parent="1">
                    <mxGeometry x="1050" y="-35" width="65" height="30" as="geometry"/>
                </mxCell>
                <mxCell id="_fzrolvzXmsKPZZHSgtj-106" value="" style="edgeStyle=none;hachureGap=4;html=1;fontFamily=Architects Daughter;fontSource=https%3A%2F%2Ffonts.googleapis.com%2Fcss%3Ffamily%3DArchitects%2BDaughter;fontSize=16;sketch=1;curveFitting=1;jiggle=2;" edge="1" parent="1" source="_fzrolvzXmsKPZZHSgtj-107">
                    <mxGeometry relative="1" as="geometry">
                        <mxPoint x="1290" y="-20.000000000000227" as="targetPoint"/>
                    </mxGeometry>
                </mxCell>
                <mxCell id="_fzrolvzXmsKPZZHSgtj-107" value="Estatutos" style="rounded=1;whiteSpace=wrap;html=1;sketch=1;curveFitting=1;jiggle=2;" vertex="1" parent="1">
                    <mxGeometry x="1170" y="-35" width="65" height="30" as="geometry"/>
                </mxCell>
                <mxCell id="_fzrolvzXmsKPZZHSgtj-109" value="" style="endArrow=classic;html=1;hachureGap=4;fontFamily=Architects Daughter;fontSource=https%3A%2F%2Ffonts.googleapis.com%2Fcss%3Ffamily%3DArchitects%2BDaughter;fontSize=16;sketch=1;curveFitting=1;jiggle=2;" edge="1" parent="1">
                    <mxGeometry width="50" height="50" relative="1" as="geometry">
                        <mxPoint x="1355" y="-20.559999999999945" as="sourcePoint"/>
                        <mxPoint x="1395" y="-20.559999999999945" as="targetPoint"/>
                    </mxGeometry>
                </mxCell>
                <mxCell id="_fzrolvzXmsKPZZHSgtj-110" value="" style="endArrow=classic;html=1;sketch=1;curveFitting=1;jiggle=2;" edge="1" parent="1">
                    <mxGeometry width="50" height="50" relative="1" as="geometry">
                        <mxPoint x="1030" y="-20" as="sourcePoint"/>
                        <mxPoint x="1130" y="-20" as="targetPoint"/>
                        <Array as="points">
                            <mxPoint x="1030" y="-60"/>
                            <mxPoint x="1130" y="-60"/>
                        </Array>
                    </mxGeometry>
                </mxCell>
                <mxCell id="_fzrolvzXmsKPZZHSgtj-111" value="" style="endArrow=classic;html=1;sketch=1;curveFitting=1;jiggle=2;" edge="1" parent="1">
                    <mxGeometry width="50" height="50" relative="1" as="geometry">
                        <mxPoint x="1152.5" y="-20" as="sourcePoint"/>
                        <mxPoint x="1252.5" y="-20" as="targetPoint"/>
                        <Array as="points">
                            <mxPoint x="1152.5" y="-60"/>
                            <mxPoint x="1252.5" y="-60"/>
                        </Array>
                    </mxGeometry>
                </mxCell>
                <mxCell id="_fzrolvzXmsKPZZHSgtj-112" value="inicio" style="ellipse;whiteSpace=wrap;html=1;sketch=1;hachureGap=4;jiggle=2;curveFitting=1;fontFamily=Architects Daughter;fontSource=https%3A%2F%2Ffonts.googleapis.com%2Fcss%3Ffamily%3DArchitects%2BDaughter;fontSize=20;" vertex="1" parent="1">
                    <mxGeometry x="930" y="-40" width="70" height="40" as="geometry"/>
                </mxCell>
                <mxCell id="_fzrolvzXmsKPZZHSgtj-113" value="fin" style="ellipse;whiteSpace=wrap;html=1;sketch=1;hachureGap=4;jiggle=2;curveFitting=1;fontFamily=Architects Daughter;fontSource=https%3A%2F%2Ffonts.googleapis.com%2Fcss%3Ffamily%3DArchitects%2BDaughter;fontSize=20;" vertex="1" parent="1">
                    <mxGeometry x="1290" y="-40" width="70" height="40" as="geometry"/>
                </mxCell>
            </root>
        </mxGraphModel>
    </diagram>
</mxfile>